HIERARCHY
ROOT Hips
{
	OFFSET 0.000000 88.474243 0.000000
	CHANNELS 6 Xposition Yposition Zposition Zrotation Yrotation Xrotation 
	JOINT Hips_Spine
	{
		OFFSET 0.000000 0.000000 0.000000
		CHANNELS 3 Zrotation Yrotation Xrotation
		JOINT Spine
		{
			OFFSET 0.005100 8.711998 -0.691000
			CHANNELS 3 Zrotation Yrotation Xrotation
			JOINT Spine1
			{
				OFFSET -0.009200 8.660301 -1.275000
				CHANNELS 3 Zrotation Yrotation Xrotation
				JOINT Spine2
				{
					OFFSET 0.006300 9.852501 -1.857000
					CHANNELS 3 Zrotation Yrotation Xrotation
					JOINT Spine2_Neck
					{
						OFFSET 0.000000 0.000000 0.000000
						CHANNELS 3 Zrotation Yrotation Xrotation
						JOINT Neck
						{
							OFFSET 0.016300 11.420799 -0.263300
							CHANNELS 3 Zrotation Yrotation Xrotation
							End Site #name: Head
							{
								OFFSET -0.019200 9.262405 2.362500
							}
						}
					}
					JOINT Spine2_LeftShoulder
					{
						OFFSET 0.000000 0.000000 0.000000
						CHANNELS 3 Zrotation Yrotation Xrotation
						JOINT LeftShoulder
						{
							OFFSET 5.616900 6.732201 -0.345700
							CHANNELS 3 Zrotation Yrotation Xrotation
							JOINT LeftArm
							{
								OFFSET 10.664888 -0.183372 -2.440700
								CHANNELS 3 Zrotation Yrotation Xrotation
								JOINT LeftForeArm
								{
									OFFSET 27.459126 0.000000 0.000000
									CHANNELS 3 Zrotation Yrotation Xrotation
									End Site #name: LeftHand
									{
										OFFSET 21.306858 0.000000 0.000000
									}
								}
							}
						}
					}
					JOINT Spine2_RightShoulder
					{
						OFFSET 0.000000 0.000000 0.000000
						CHANNELS 3 Zrotation Yrotation Xrotation
						JOINT RightShoulder
						{
							OFFSET -5.580300 6.737503 -0.344400
							CHANNELS 3 Zrotation Yrotation Xrotation
							JOINT RightArm
							{
								OFFSET -10.679335 -0.188484 -2.383900
								CHANNELS 3 Zrotation Yrotation Xrotation
								JOINT RightForeArm
								{
									OFFSET -27.503529 0.000000 0.000000
									CHANNELS 3 Zrotation Yrotation Xrotation
									End Site #name: RightHand
									{
										OFFSET -21.306808 0.000000 0.000000
									}
								}
							}
						}
					}
				}
			}
		}
	}
	JOINT Hips_LeftUpLeg
	{
		OFFSET 0.000000 0.000000 0.000000
		CHANNELS 3 Zrotation Yrotation Xrotation
		JOINT LeftUpLeg
		{
			OFFSET 6.857700 -6.739601 0.312100
			CHANNELS 3 Zrotation Yrotation Xrotation
			JOINT LeftLeg
			{
				OFFSET -0.367590 -34.731552 -4.572400
				CHANNELS 3 Zrotation Yrotation Xrotation
				End Site #name: LeftFoot
				{
					OFFSET 0.367590 -34.656704 -6.067400
				}
			}
		}
	}
	JOINT Hips_RightUpLeg
	{
		OFFSET 0.000000 0.000000 0.000000
		CHANNELS 3 Zrotation Yrotation Xrotation
		JOINT RightUpLeg
		{
			OFFSET -6.876100 -6.733299 0.301000
			CHANNELS 3 Zrotation Yrotation Xrotation
			JOINT RightLeg
			{
				OFFSET 0.347353 -34.795158 -4.515900
				CHANNELS 3 Zrotation Yrotation Xrotation
				End Site #name: RightFoot
				{
					OFFSET -0.347353 -34.589367 -6.070300
				}
			}
		}
	}
}
MOTION
Frames: 6
Frame Time: 0.041667
-0.229259 0.284692 -1.586054 -4.396822 1.867188 -2.893022 0.000000 -0.000000 0.000000 3.171375 -0.742861 20.583412 0.207812 0.274752 2.317660 0.000000 0.000000 0.000000 0.448029 0.229898 1.456579 1.026123 -0.849418 9.052975 0.462810 0.205526 1.905991 -7.562361 1.411281 -0.871129 -66.289620 -1.412788 13.468198 0.088874 -55.050485 0.884090 0.212181 0.389328 2.168858 4.782406 -7.091761 0.256368 70.634289 12.852166 5.666610 179.759315 76.017386 179.721939 0.000000 0.000000 0.000000 7.994247 8.057858 -76.179998 4.380146 -5.691692 66.956650 -0.000000 -0.000000 -0.000000 -4.958017 -7.734741 -70.029874 -0.889931 -0.073195 72.543329 
-0.234848 0.291643 -1.630566 -4.385058 1.859031 -2.890332 0.000000 -0.000000 0.000000 3.171825 -0.732515 20.586343 0.211662 0.274363 2.335684 0.000000 0.000000 0.000000 0.452754 0.229599 1.473484 1.031788 -0.852639 9.044639 0.468466 0.205262 1.919903 -7.565549 1.375451 -0.867416 -66.302182 -1.462031 13.348345 0.088510 -54.878118 0.882696 0.218611 0.389162 2.196329 4.812293 -7.104094 0.251327 70.635527 13.010989 5.870094 179.751291 76.628123 179.712619 0.000000 0.000000 0.000000 7.995331 8.056327 -76.190311 4.386045 -5.692510 66.964466 -0.000000 -0.000000 -0.000000 -4.952502 -7.740394 -70.031353 -0.893113 -0.077168 72.548987 
-0.239528 0.298328 -1.674816 -4.375278 1.850315 -2.887179 0.000000 -0.000000 0.000000 3.174418 -0.717980 20.589482 0.216549 0.274527 2.354086 0.000000 0.000000 0.000000 0.459043 0.230170 1.489996 1.035487 -0.853063 9.030438 0.473868 0.205590 1.936502 -7.574497 1.318531 -0.859756 -66.328252 -1.532266 13.199250 0.094310 -54.529182 0.875171 0.226824 0.389507 2.225936 4.857454 -7.118760 0.245298 70.638639 13.233555 6.156095 179.737992 77.411897 179.697978 0.000000 0.000000 0.000000 7.997630 8.055994 -76.192051 4.395768 -5.691751 66.960967 -0.000000 -0.000000 -0.000000 -4.946488 -7.744378 -70.026821 -0.893711 -0.079369 72.552352 
-0.243282 0.304752 -1.718837 -4.367895 1.840633 -2.884167 0.000000 -0.000000 0.000000 3.179054 -0.700377 20.590722 0.222231 0.275029 2.373516 0.000000 0.000000 0.000000 0.466373 0.231400 1.508206 1.039744 -0.853743 9.014722 0.481155 0.206370 1.955648 -7.580790 1.244446 -0.847687 -66.358563 -1.608884 13.015180 0.096595 -54.053058 0.870766 0.236880 0.389690 2.261347 4.922763 -7.141963 0.239669 70.699577 13.516054 6.527461 179.727326 78.361504 179.686901 0.000000 0.000000 0.000000 8.000997 8.055282 -76.197953 4.404796 -5.691019 66.961956 -0.000000 -0.000000 -0.000000 -4.940440 -7.746643 -70.025988 -0.896836 -0.081978 72.555167 
-0.246081 0.310972 -1.762596 -4.361062 1.831381 -2.880261 0.000000 -0.000000 0.000000 3.188304 -0.680089 20.594495 0.229093 0.276001 2.392367 0.000000 0.000000 0.000000 0.475292 0.233201 1.526985 1.042079 -0.852102 8.990253 0.489171 0.207702 1.975002 -7.596476 1.155890 -0.831455 -66.400057 -1.708674 12.789663 0.102266 -53.445771 0.862731 0.248792 0.390658 2.300538 5.004442 -7.167765 0.232742 70.775239 13.840907 6.992548 179.699357 79.883407 179.662335 0.000000 0.000000 0.000000 8.001449 8.056830 -76.200189 4.414940 -5.690864 66.958710 -0.000000 -0.000000 -0.000000 -4.933104 -7.749789 -70.026772 -0.897463 -0.084428 72.556803 
-0.247921 0.317013 -1.806140 -4.355624 1.819945 -2.874330 0.000000 -0.000000 0.000000 3.198793 -0.657620 20.598902 0.236514 0.277386 2.413330 0.000000 0.000000 0.000000 0.486672 0.235076 1.549979 1.043404 -0.850213 8.963032 0.497205 0.209737 1.995530 -7.606666 1.055088 -0.814854 -66.429083 -1.812976 12.552678 0.109196 -52.723672 0.853116 0.261826 0.391917 2.345147 5.102094 -7.187336 0.224915 70.882113 14.260091 7.509958 179.632954 81.700551 179.601054 0.000000 0.000000 0.000000 8.004418 8.058875 -76.200577 4.424865 -5.688462 66.957215 -0.000000 -0.000000 0.000000 -4.927968 -7.748991 -70.026695 -0.899481 -0.086176 72.558466 
